ply
format ascii 1.0
comment Created by Blender 2.91.0 - www.blender.org
element vertex 22
property float x
property float y
property float z
property float nx
property float ny
property float nz
property float s
property float t
element face 1
property list uchar uint vertex_indices
end_header
-17.977278 -2.322987 0.000000 0.000000 0.000000 1.000000 0.000000 0.000000
17.977278 -2.322987 0.000000 0.000000 0.000000 1.000000 1.000000 0.000000
17.977278 2.322987 0.000000 0.000000 0.000000 1.000000 1.000000 1.000000
-1.436972 2.322987 0.000000 0.000000 0.000000 1.000000 0.460034 1.000000
-1.707885 0.843388 0.000000 0.000000 0.000000 1.000000 0.452499 0.681531
-2.120400 0.829064 0.000000 0.000000 0.000000 1.000000 0.441025 0.678448
-1.803227 2.322987 0.000000 0.000000 0.000000 1.000000 0.449847 1.000000
-6.016928 2.322987 0.000000 0.000000 0.000000 1.000000 0.332652 1.000000
-6.010716 1.905715 0.000000 0.000000 0.000000 1.000000 0.332825 0.910187
-6.392692 1.911844 0.000000 0.000000 0.000000 1.000000 0.322201 0.911506
-6.372547 2.322987 0.000000 0.000000 0.000000 1.000000 0.322761 1.000000
-9.312089 2.322987 0.000000 0.000000 0.000000 1.000000 0.241004 1.000000
-9.428816 1.851164 0.000000 0.000000 0.000000 1.000000 0.237757 0.898445
-9.786941 1.853414 0.000000 0.000000 0.000000 1.000000 0.227797 0.898929
-9.665090 2.322987 0.000000 0.000000 0.000000 1.000000 0.231186 1.000000
-11.578701 2.322987 0.000000 0.000000 0.000000 1.000000 0.177963 1.000000
-12.456384 1.596938 0.000000 0.000000 0.000000 1.000000 0.153552 0.843725
-12.758022 0.775264 0.000000 0.000000 0.000000 1.000000 0.145163 0.666868
-12.894281 0.095817 0.000000 0.000000 0.000000 1.000000 0.141373 0.520624
-14.292531 0.153713 0.000000 0.000000 0.000000 1.000000 0.102483 0.533085
-14.276355 2.322987 0.000000 0.000000 0.000000 1.000000 0.102933 1.000000
-17.977278 2.322987 0.000000 0.000000 0.000000 1.000000 0.000000 1.000000
22 0 1 2 3 4 5 6 7 8 9 10 11 12 13 14 15 16 17 18 19 20 21
