solid Exported from Blender-2.91.0
facet normal 0.000000 0.000000 -1.000000
outer loop
vertex 14.325656 2.191092 0.000000
vertex 17.997917 2.157256 0.000000
vertex 17.979200 0.125937 0.000000
endloop
endfacet
facet normal 0.000000 0.000000 -1.000000
outer loop
vertex 14.696521 0.547828 0.000000
vertex 14.302424 0.554299 0.000000
vertex 14.325656 2.191092 0.000000
endloop
endfacet
facet normal 0.000000 0.000000 -1.000000
outer loop
vertex 17.979200 0.125937 0.000000
vertex 14.696521 0.547828 0.000000
vertex 14.325656 2.191092 0.000000
endloop
endfacet
facet normal 0.000000 0.000000 1.000000
outer loop
vertex 17.997917 2.157256 2.321811
vertex 14.615648 2.188420 2.321811
vertex 14.290508 -0.285389 2.321811
endloop
endfacet
facet normal 0.000000 0.000000 1.000000
outer loop
vertex 17.997917 2.157256 2.321811
vertex 14.290508 -0.285389 2.321811
vertex 17.974846 -0.346703 2.321811
endloop
endfacet
facet normal 0.630281 -0.776367 0.000000
outer loop
vertex 11.556808 -2.429567 2.321811
vertex 11.556808 -2.429567 0.000000
vertex 12.441142 -1.711636 0.000000
endloop
endfacet
facet normal 0.630280 -0.776368 0.000000
outer loop
vertex 12.441142 -1.711636 1.168124
vertex 12.441142 -1.711636 2.321811
vertex 11.556808 -2.429567 2.321811
endloop
endfacet
facet normal 0.630281 -0.776367 0.000000
outer loop
vertex 12.441142 -1.711636 0.000000
vertex 12.441142 -1.711636 1.168124
vertex 11.556808 -2.429567 2.321811
endloop
endfacet
facet normal -0.999958 0.009213 0.000000
outer loop
vertex -17.955112 2.488520 0.000000
vertex -17.997917 -2.157256 0.000000
vertex -17.997917 -2.157256 2.321811
endloop
endfacet
facet normal -0.999958 0.009214 0.000000
outer loop
vertex -17.955112 2.488520 0.000000
vertex -17.997917 -2.157256 2.321811
vertex -17.955112 2.488520 2.321811
endloop
endfacet
facet normal 0.999984 0.005673 0.000000
outer loop
vertex 5.995270 -2.378325 0.000000
vertex 5.992903 -1.961014 0.000000
vertex 5.992903 -1.961014 2.321811
endloop
endfacet
facet normal 0.999984 0.005671 0.000000
outer loop
vertex 5.995270 -2.378325 0.000000
vertex 5.992903 -1.961014 2.321811
vertex 5.995270 -2.378325 2.321811
endloop
endfacet
facet normal 0.978625 -0.205654 0.000000
outer loop
vertex 12.750339 -0.892776 0.000000
vertex 12.892851 -0.214613 0.000000
vertex 12.892851 -0.214613 0.904467
endloop
endfacet
facet normal 0.978625 -0.205651 0.000000
outer loop
vertex 12.750339 -0.892776 0.000000
vertex 12.892851 -0.214613 0.904467
vertex 12.750339 -0.892776 0.981013
endloop
endfacet
facet normal -0.009213 -0.999958 0.000000
outer loop
vertex -17.997917 -2.157256 0.000000
vertex 1.415509 -2.336128 0.000000
vertex 1.415509 -2.336128 2.321811
endloop
endfacet
facet normal -0.009213 -0.999958 0.000000
outer loop
vertex -17.997917 -2.157256 0.000000
vertex 1.415509 -2.336128 2.321811
vertex -17.997917 -2.157256 2.321811
endloop
endfacet
facet normal -0.009213 -0.999958 0.000000
outer loop
vertex 6.350874 -2.381601 0.000000
vertex 9.290291 -2.408684 0.000000
vertex 9.290291 -2.408684 2.321811
endloop
endfacet
facet normal -0.009213 -0.999958 0.000000
outer loop
vertex 6.350874 -2.381601 0.000000
vertex 9.290291 -2.408684 2.321811
vertex 6.350874 -2.381601 2.321811
endloop
endfacet
facet normal 0.968481 -0.249087 0.000000
outer loop
vertex 9.290291 -2.408684 0.000000
vertex 9.411360 -1.937957 0.000000
vertex 9.411360 -1.937957 2.321811
endloop
endfacet
facet normal 0.968480 -0.249091 0.000000
outer loop
vertex 9.290291 -2.408684 0.000000
vertex 9.411360 -1.937957 2.321811
vertex 9.290291 -2.408684 2.321811
endloop
endfacet
facet normal -0.976242 0.216684 0.000000
outer loop
vertex 2.112672 -0.848565 0.000000
vertex 1.781748 -2.339502 0.000000
vertex 1.781748 -2.339502 2.321811
endloop
endfacet
facet normal -0.976242 0.216684 0.000000
outer loop
vertex 2.112672 -0.848565 0.000000
vertex 1.781748 -2.339502 2.321811
vertex 2.112672 -0.848565 2.321811
endloop
endfacet
facet normal -0.015494 -0.999880 0.000000
outer loop
vertex 9.411360 -1.937957 0.000000
vertex 9.769449 -1.943506 0.000000
vertex 9.769449 -1.943506 2.321811
endloop
endfacet
facet normal -0.015494 -0.999880 0.000000
outer loop
vertex 9.411360 -1.937957 0.000000
vertex 9.769449 -1.943506 2.321811
vertex 9.411360 -1.937957 2.321811
endloop
endfacet
facet normal -0.044580 0.149783 0.987713
outer loop
vertex 12.750339 -0.892776 1.321163
vertex 14.290508 -0.285389 1.298571
vertex 12.892851 -0.214613 1.224754
endloop
endfacet
facet normal 0.025492 -0.999675 0.000000
outer loop
vertex 1.700042 -0.859087 0.000000
vertex 2.112672 -0.848565 0.000000
vertex 2.112672 -0.848565 2.321811
endloop
endfacet
facet normal 0.025492 -0.999675 0.000000
outer loop
vertex 1.700042 -0.859087 0.000000
vertex 2.112672 -0.848565 2.321811
vertex 1.700042 -0.859087 2.321811
endloop
endfacet
facet normal 0.935529 -0.353250 0.000000
outer loop
vertex 12.441142 -1.711636 0.000000
vertex 12.750339 -0.892776 0.000000
vertex 12.750339 -0.892776 0.981013
endloop
endfacet
facet normal 0.935529 -0.353250 0.000000
outer loop
vertex 12.441142 -1.711636 0.000000
vertex 12.750339 -0.892776 0.981013
vertex 12.441142 -1.711636 1.168124
endloop
endfacet
facet normal -0.050574 -0.998720 0.000000
outer loop
vertex 12.892851 -0.214613 0.904467
vertex 12.892851 -0.214613 0.000000
vertex 12.997257 -0.219900 0.000000
endloop
endfacet
facet normal -0.050575 -0.998720 0.000000
outer loop
vertex 12.997257 -0.219900 0.000000
vertex 14.290508 -0.285389 0.000000
vertex 14.290508 -0.285389 0.748448
endloop
endfacet
facet normal -0.050575 -0.998720 -0.000000
outer loop
vertex 12.997257 -0.219900 0.000000
vertex 14.290508 -0.285389 0.748448
vertex 12.892851 -0.214613 0.904467
endloop
endfacet
facet normal 0.981946 -0.189160 0.000000
outer loop
vertex 1.415509 -2.336128 0.000000
vertex 1.700042 -0.859087 0.000000
vertex 1.700042 -0.859087 2.321811
endloop
endfacet
facet normal 0.981946 -0.189160 0.000000
outer loop
vertex 1.415509 -2.336128 0.000000
vertex 1.700042 -0.859087 2.321811
vertex 1.415509 -2.336128 2.321811
endloop
endfacet
facet normal -0.009213 -0.999958 0.000000
outer loop
vertex 1.781748 -2.339502 0.000000
vertex 5.995270 -2.378325 0.000000
vertex 5.995270 -2.378325 2.321811
endloop
endfacet
facet normal -0.009213 -0.999958 0.000000
outer loop
vertex 1.781748 -2.339502 0.000000
vertex 5.995270 -2.378325 2.321811
vertex 1.781748 -2.339502 2.321811
endloop
endfacet
facet normal -0.009213 -0.999957 0.000000
outer loop
vertex 9.643277 -2.411937 0.000000
vertex 11.556808 -2.429567 0.000000
vertex 11.556808 -2.429567 2.321811
endloop
endfacet
facet normal -0.009213 -0.999957 0.000000
outer loop
vertex 9.643277 -2.411937 0.000000
vertex 11.556808 -2.429567 2.321811
vertex 9.643277 -2.411937 2.321811
endloop
endfacet
facet normal -0.998308 0.058140 0.000000
outer loop
vertex 6.374806 -1.970662 0.000000
vertex 6.350874 -2.381601 0.000000
vertex 6.350874 -2.381601 2.321811
endloop
endfacet
facet normal -0.998308 0.058140 0.000000
outer loop
vertex 6.374806 -1.970662 0.000000
vertex 6.350874 -2.381601 2.321811
vertex 6.374806 -1.970662 2.321811
endloop
endfacet
facet normal -0.965586 0.260083 0.000000
outer loop
vertex 9.769449 -1.943506 0.000000
vertex 9.643277 -2.411937 0.000000
vertex 9.643277 -2.411937 2.321811
endloop
endfacet
facet normal -0.965587 0.260080 0.000000
outer loop
vertex 9.769449 -1.943506 0.000000
vertex 9.643277 -2.411937 2.321811
vertex 9.769449 -1.943506 2.321811
endloop
endfacet
facet normal 0.009213 0.999958 -0.000000
outer loop
vertex 17.997917 2.157256 0.000000
vertex 14.325656 2.191092 0.000000
vertex 14.615648 2.188420 2.321811
endloop
endfacet
facet normal 0.009213 0.999958 0.000000
outer loop
vertex 17.997917 2.157256 0.000000
vertex 14.615648 2.188420 2.321811
vertex 17.997917 2.157256 2.321811
endloop
endfacet
facet normal -0.025255 -0.999681 0.000000
outer loop
vertex 5.992903 -1.961014 0.000000
vertex 6.374806 -1.970662 0.000000
vertex 6.374806 -1.970662 2.321811
endloop
endfacet
facet normal -0.025255 -0.999681 0.000000
outer loop
vertex 5.992903 -1.961014 0.000000
vertex 6.374806 -1.970662 2.321811
vertex 5.992903 -1.961014 2.321811
endloop
endfacet
facet normal 0.999958 -0.009214 -0.000000
outer loop
vertex 17.974846 -0.346703 2.321811
vertex 17.979200 0.125937 0.000000
vertex 17.997917 2.157256 0.000000
endloop
endfacet
facet normal 0.999958 -0.009213 0.000000
outer loop
vertex 17.974846 -0.346703 2.321811
vertex 17.997917 2.157256 0.000000
vertex 17.997917 2.157256 2.321811
endloop
endfacet
facet normal 0.935529 -0.353250 0.000000
outer loop
vertex 12.441142 -1.711636 1.168124
vertex 12.750339 -0.892776 1.321163
vertex 12.750339 -0.892776 2.321811
endloop
endfacet
facet normal 0.935529 -0.353250 0.000000
outer loop
vertex 12.441142 -1.711636 1.168124
vertex 12.750339 -0.892776 2.321811
vertex 12.441142 -1.711636 2.321811
endloop
endfacet
facet normal 0.978625 -0.205654 0.000000
outer loop
vertex 12.750339 -0.892776 1.321163
vertex 12.892851 -0.214613 1.224754
vertex 12.892851 -0.214613 2.321811
endloop
endfacet
facet normal 0.978625 -0.205650 0.000000
outer loop
vertex 12.750339 -0.892776 1.321163
vertex 12.892851 -0.214613 2.321811
vertex 12.750339 -0.892776 2.321811
endloop
endfacet
facet normal -0.050575 -0.998720 0.000000
outer loop
vertex 12.892851 -0.214613 1.224754
vertex 14.290508 -0.285389 1.298571
vertex 14.290508 -0.285389 2.321811
endloop
endfacet
facet normal -0.050575 -0.998720 0.000000
outer loop
vertex 12.892851 -0.214613 1.224754
vertex 14.290508 -0.285389 2.321811
vertex 12.892851 -0.214613 2.321811
endloop
endfacet
facet normal 0.000000 0.000000 -1.000000
outer loop
vertex -17.997917 -2.157256 0.000000
vertex -17.955112 2.488520 0.000000
vertex 12.874326 0.577751 0.000000
endloop
endfacet
facet normal 0.000000 0.000000 -1.000000
outer loop
vertex 12.874326 0.577751 0.000000
vertex 12.903591 0.577270 0.000000
vertex 12.997257 -0.219900 0.000000
endloop
endfacet
facet normal 0.000000 0.000000 -1.000000
outer loop
vertex 12.892851 -0.214613 0.000000
vertex 12.750339 -0.892776 0.000000
vertex 12.441142 -1.711636 0.000000
endloop
endfacet
facet normal 0.000000 0.000000 -1.000000
outer loop
vertex 12.874326 0.577751 0.000000
vertex 12.997257 -0.219900 0.000000
vertex 12.892851 -0.214613 0.000000
endloop
endfacet
facet normal 0.000000 0.000000 -1.000000
outer loop
vertex 1.700042 -0.859087 0.000000
vertex 1.415509 -2.336128 0.000000
vertex -17.997917 -2.157256 0.000000
endloop
endfacet
facet normal 0.000000 0.000000 -1.000000
outer loop
vertex 5.995270 -2.378325 0.000000
vertex 1.781748 -2.339502 0.000000
vertex 2.112672 -0.848565 0.000000
endloop
endfacet
facet normal 0.000000 0.000000 -1.000000
outer loop
vertex 1.700042 -0.859087 0.000000
vertex -17.997917 -2.157256 0.000000
vertex 12.874326 0.577751 0.000000
endloop
endfacet
facet normal 0.000000 0.000000 -1.000000
outer loop
vertex 5.992903 -1.961014 0.000000
vertex 5.995270 -2.378325 0.000000
vertex 2.112672 -0.848565 0.000000
endloop
endfacet
facet normal 0.000000 0.000000 -1.000000
outer loop
vertex 2.112672 -0.848565 0.000000
vertex 1.700042 -0.859087 0.000000
vertex 12.874326 0.577751 0.000000
endloop
endfacet
facet normal 0.000000 0.000000 -1.000000
outer loop
vertex 12.874326 0.577751 0.000000
vertex 12.892851 -0.214613 0.000000
vertex 12.441142 -1.711636 0.000000
endloop
endfacet
facet normal 0.000000 0.000000 -1.000000
outer loop
vertex 12.441142 -1.711636 0.000000
vertex 11.556808 -2.429567 0.000000
vertex 9.643277 -2.411937 0.000000
endloop
endfacet
facet normal 0.000000 0.000000 -1.000000
outer loop
vertex 12.441142 -1.711636 0.000000
vertex 9.643277 -2.411937 0.000000
vertex 9.769449 -1.943506 0.000000
endloop
endfacet
facet normal 0.000000 0.000000 -1.000000
outer loop
vertex 2.112672 -0.848565 0.000000
vertex 12.874326 0.577751 0.000000
vertex 12.441142 -1.711636 0.000000
endloop
endfacet
facet normal 0.000000 0.000000 -1.000000
outer loop
vertex 6.374806 -1.970662 0.000000
vertex 5.992903 -1.961014 0.000000
vertex 2.112672 -0.848565 0.000000
endloop
endfacet
facet normal 0.000000 0.000000 -1.000000
outer loop
vertex 9.290291 -2.408684 0.000000
vertex 6.350874 -2.381601 0.000000
vertex 6.374806 -1.970662 0.000000
endloop
endfacet
facet normal 0.000000 0.000000 -1.000000
outer loop
vertex 12.441142 -1.711636 0.000000
vertex 9.769449 -1.943506 0.000000
vertex 9.411360 -1.937957 0.000000
endloop
endfacet
facet normal 0.000000 0.000000 -1.000000
outer loop
vertex 9.411360 -1.937957 0.000000
vertex 9.290291 -2.408684 0.000000
vertex 6.374806 -1.970662 0.000000
endloop
endfacet
facet normal 0.000000 0.000000 -1.000000
outer loop
vertex 6.374806 -1.970662 0.000000
vertex 2.112672 -0.848565 0.000000
vertex 12.441142 -1.711636 0.000000
endloop
endfacet
facet normal 0.000000 0.000000 -1.000000
outer loop
vertex 12.441142 -1.711636 0.000000
vertex 9.411360 -1.937957 0.000000
vertex 6.374806 -1.970662 0.000000
endloop
endfacet
facet normal -0.099755 -0.125012 -0.987128
outer loop
vertex 14.272427 -1.369906 0.887621
vertex 12.750339 -0.892776 0.981013
vertex 14.290508 -0.285389 0.748448
endloop
endfacet
facet normal -0.083331 0.247213 0.965371
outer loop
vertex 12.750339 -0.892776 1.321163
vertex 14.272427 -1.369906 1.574734
vertex 14.290508 -0.285389 1.298571
endloop
endfacet
facet normal -0.114892 -0.087544 -0.989513
outer loop
vertex 12.750339 -0.892776 0.981013
vertex 12.892851 -0.214613 0.904467
vertex 14.290508 -0.285389 0.748448
endloop
endfacet
facet normal -0.102750 -0.241445 -0.964960
outer loop
vertex 14.254347 -2.454422 1.160906
vertex 12.441142 -1.711636 1.168124
vertex 14.272427 -1.369906 0.887621
endloop
endfacet
facet normal -0.140083 -0.350952 0.925856
outer loop
vertex 14.254347 -2.454422 1.160906
vertex 14.272427 -1.369906 1.574734
vertex 12.441142 -1.711636 1.168124
endloop
endfacet
facet normal -0.116165 -0.179361 -0.976901
outer loop
vertex 12.441142 -1.711636 1.168124
vertex 12.750339 -0.892776 0.981013
vertex 14.272427 -1.369906 0.887621
endloop
endfacet
facet normal -0.196231 -0.108048 0.974587
outer loop
vertex 14.272427 -1.369906 1.574734
vertex 12.750339 -0.892776 1.321163
vertex 12.441142 -1.711636 1.168124
endloop
endfacet
facet normal 0.000000 0.000000 1.000000
outer loop
vertex 12.750339 -0.892776 2.321811
vertex 12.892851 -0.214613 2.321811
vertex 12.783798 2.205298 2.321811
endloop
endfacet
facet normal 0.000000 0.000000 1.000000
outer loop
vertex 12.783798 2.205298 2.321811
vertex -17.955112 2.488520 2.321811
vertex -17.997917 -2.157256 2.321811
endloop
endfacet
facet normal 0.000000 0.000000 1.000000
outer loop
vertex -17.997917 -2.157256 2.321811
vertex 1.415509 -2.336128 2.321811
vertex 1.700042 -0.859087 2.321811
endloop
endfacet
facet normal -0.000000 0.000000 1.000000
outer loop
vertex 2.112672 -0.848565 2.321811
vertex 1.781748 -2.339502 2.321811
vertex 5.995270 -2.378325 2.321811
endloop
endfacet
facet normal 0.000000 0.000000 1.000000
outer loop
vertex 12.783798 2.205298 2.321811
vertex -17.997917 -2.157256 2.321811
vertex 1.700042 -0.859087 2.321811
endloop
endfacet
facet normal 0.000000 0.000000 1.000000
outer loop
vertex 2.112672 -0.848565 2.321811
vertex 5.995270 -2.378325 2.321811
vertex 5.992903 -1.961014 2.321811
endloop
endfacet
facet normal 0.000000 0.000000 1.000000
outer loop
vertex 12.783798 2.205298 2.321811
vertex 1.700042 -0.859087 2.321811
vertex 2.112672 -0.848565 2.321811
endloop
endfacet
facet normal 0.000000 0.000000 1.000000
outer loop
vertex 12.441142 -1.711636 2.321811
vertex 12.750339 -0.892776 2.321811
vertex 12.783798 2.205298 2.321811
endloop
endfacet
facet normal 0.000000 0.000000 1.000000
outer loop
vertex 9.643277 -2.411937 2.321811
vertex 11.556808 -2.429567 2.321811
vertex 12.441142 -1.711636 2.321811
endloop
endfacet
facet normal 0.000000 0.000000 1.000000
outer loop
vertex 9.769449 -1.943506 2.321811
vertex 9.643277 -2.411937 2.321811
vertex 12.441142 -1.711636 2.321811
endloop
endfacet
facet normal -0.000000 0.000000 1.000000
outer loop
vertex 12.441142 -1.711636 2.321811
vertex 12.783798 2.205298 2.321811
vertex 2.112672 -0.848565 2.321811
endloop
endfacet
facet normal -0.000000 0.000000 1.000000
outer loop
vertex 2.112672 -0.848565 2.321811
vertex 5.992903 -1.961014 2.321811
vertex 6.374806 -1.970662 2.321811
endloop
endfacet
facet normal 0.000000 0.000000 1.000000
outer loop
vertex 6.374806 -1.970662 2.321811
vertex 6.350874 -2.381601 2.321811
vertex 9.290291 -2.408684 2.321811
endloop
endfacet
facet normal 0.000000 0.000000 1.000000
outer loop
vertex 9.411360 -1.937957 2.321811
vertex 9.769449 -1.943506 2.321811
vertex 12.441142 -1.711636 2.321811
endloop
endfacet
facet normal 0.000000 0.000000 1.000000
outer loop
vertex 6.374806 -1.970662 2.321811
vertex 9.290291 -2.408684 2.321811
vertex 9.411360 -1.937957 2.321811
endloop
endfacet
facet normal 0.000000 0.000000 1.000000
outer loop
vertex 12.441142 -1.711636 2.321811
vertex 2.112672 -0.848565 2.321811
vertex 6.374806 -1.970662 2.321811
endloop
endfacet
facet normal 0.000000 0.000000 1.000000
outer loop
vertex 6.374806 -1.970662 2.321811
vertex 9.411360 -1.937957 2.321811
vertex 12.441142 -1.711636 2.321811
endloop
endfacet
facet normal 0.009213 0.999958 0.000000
outer loop
vertex 12.783798 2.205298 2.321811
vertex 12.712228 2.205957 0.000000
vertex -17.955112 2.488520 0.000000
endloop
endfacet
facet normal 0.009213 0.999958 0.000000
outer loop
vertex 12.783798 2.205298 2.321811
vertex -17.955112 2.488520 0.000000
vertex -17.955112 2.488520 2.321811
endloop
endfacet
facet normal -0.000000 0.000000 1.000000
outer loop
vertex 14.290508 -0.285389 2.321811
vertex 14.615648 2.188420 2.321811
vertex 12.783798 2.205298 2.321811
endloop
endfacet
facet normal 0.000000 0.000000 1.000000
outer loop
vertex 14.290508 -0.285389 2.321811
vertex 12.783798 2.205298 2.321811
vertex 12.892851 -0.214613 2.321811
endloop
endfacet
facet normal 0.009213 0.999958 -0.000000
outer loop
vertex 14.615648 2.188420 2.321811
vertex 14.325656 2.191092 0.000000
vertex 12.712228 2.205957 0.000000
endloop
endfacet
facet normal 0.009213 0.999958 0.000000
outer loop
vertex 14.615648 2.188420 2.321811
vertex 12.712228 2.205957 0.000000
vertex 12.783798 2.205298 2.321811
endloop
endfacet
facet normal 0.000000 0.000000 -1.000000
outer loop
vertex 17.978920 0.095478 0.000000
vertex 14.290508 -0.285389 0.000000
vertex 14.302424 0.554299 0.000000
endloop
endfacet
facet normal 0.000000 0.000000 -1.000000
outer loop
vertex 14.302424 0.554299 0.000000
vertex 14.696521 0.547828 0.000000
vertex 17.979200 0.125937 0.000000
endloop
endfacet
facet normal 0.000000 0.000000 -1.000000
outer loop
vertex 14.302424 0.554299 0.000000
vertex 17.979200 0.125937 0.000000
vertex 17.978920 0.095478 0.000000
endloop
endfacet
facet normal 0.000000 0.000000 -1.000000
outer loop
vertex 14.325656 2.191092 0.000000
vertex 14.302424 0.554299 0.000000
vertex 12.903591 0.577270 0.000000
endloop
endfacet
facet normal 0.000000 0.000000 -1.000000
outer loop
vertex 14.325656 2.191092 0.000000
vertex 12.903591 0.577270 0.000000
vertex 12.712228 2.205957 0.000000
endloop
endfacet
facet normal 0.000000 0.000000 -1.000000
outer loop
vertex 12.712228 2.205957 0.000000
vertex 12.903591 0.577270 0.000000
vertex 12.874326 0.577751 0.000000
endloop
endfacet
facet normal 0.000000 0.000000 -1.000000
outer loop
vertex 12.712228 2.205957 0.000000
vertex 12.874326 0.577751 0.000000
vertex -17.955112 2.488520 0.000000
endloop
endfacet
facet normal 0.000000 0.000000 -1.000000
outer loop
vertex 12.997257 -0.219900 0.000000
vertex 12.903591 0.577270 0.000000
vertex 14.302424 0.554299 0.000000
endloop
endfacet
facet normal 0.000000 0.000000 -1.000000
outer loop
vertex 12.997257 -0.219900 0.000000
vertex 14.302424 0.554299 0.000000
vertex 14.290508 -0.285389 0.000000
endloop
endfacet
facet normal -0.009213 -0.999958 0.000000
outer loop
vertex 14.254347 -2.454422 1.160906
vertex 14.254347 -2.454422 0.000000
vertex 17.955112 -2.488520 0.000000
endloop
endfacet
facet normal -0.009213 -0.999958 0.000000
outer loop
vertex 17.955112 -2.488520 0.000000
vertex 17.955112 -2.488520 2.321811
vertex 14.254347 -2.454422 2.321811
endloop
endfacet
facet normal -0.009213 -0.999958 0.000000
outer loop
vertex 17.955112 -2.488520 0.000000
vertex 14.254347 -2.454422 2.321811
vertex 14.254347 -2.454422 1.160906
endloop
endfacet
facet normal 0.999958 -0.009213 0.000000
outer loop
vertex 17.955112 -2.488520 2.321811
vertex 17.955112 -2.488520 0.000000
vertex 17.978920 0.095478 0.000000
endloop
endfacet
facet normal 0.999958 -0.009169 0.000002
outer loop
vertex 17.978920 0.095478 0.000000
vertex 17.979200 0.125937 0.000000
vertex 17.974846 -0.346703 2.321811
endloop
endfacet
facet normal 0.999958 -0.009214 0.000000
outer loop
vertex 17.978920 0.095478 0.000000
vertex 17.974846 -0.346703 2.321811
vertex 17.955112 -2.488520 2.321811
endloop
endfacet
facet normal -0.999861 0.016668 0.000000
outer loop
vertex 14.272427 -1.369906 0.000000
vertex 14.254347 -2.454422 0.000000
vertex 14.254347 -2.454422 1.160906
endloop
endfacet
facet normal -0.999861 0.016669 0.000000
outer loop
vertex 14.272427 -1.369906 0.000000
vertex 14.254347 -2.454422 1.160906
vertex 14.272427 -1.369906 0.887621
endloop
endfacet
facet normal -0.000000 0.000000 1.000000
outer loop
vertex 17.955112 -2.488520 2.321811
vertex 17.974846 -0.346703 2.321811
vertex 14.290508 -0.285389 2.321811
endloop
endfacet
facet normal 0.000000 0.000000 1.000000
outer loop
vertex 14.290508 -0.285389 2.321811
vertex 14.272427 -1.369906 2.321811
vertex 14.254347 -2.454422 2.321811
endloop
endfacet
facet normal 0.000000 0.000000 1.000000
outer loop
vertex 14.290508 -0.285389 2.321811
vertex 14.254347 -2.454422 2.321811
vertex 17.955112 -2.488520 2.321811
endloop
endfacet
facet normal 0.000000 0.000000 -1.000000
outer loop
vertex 14.272427 -1.369906 0.000000
vertex 14.290508 -0.285389 0.000000
vertex 17.978920 0.095478 0.000000
endloop
endfacet
facet normal 0.000000 0.000000 -1.000000
outer loop
vertex 17.978920 0.095478 0.000000
vertex 17.955112 -2.488520 0.000000
vertex 14.254347 -2.454422 0.000000
endloop
endfacet
facet normal 0.000000 0.000000 -1.000000
outer loop
vertex 17.978920 0.095478 0.000000
vertex 14.254347 -2.454422 0.000000
vertex 14.272427 -1.369906 0.000000
endloop
endfacet
facet normal -0.999861 0.016671 0.000000
outer loop
vertex 14.290508 -0.285389 0.000000
vertex 14.272427 -1.369906 0.000000
vertex 14.272427 -1.369906 0.887621
endloop
endfacet
facet normal -0.999861 0.016671 0.000000
outer loop
vertex 14.290508 -0.285389 0.000000
vertex 14.272427 -1.369906 0.887621
vertex 14.290508 -0.285389 0.748448
endloop
endfacet
facet normal -0.999861 0.016672 0.000000
outer loop
vertex 14.290508 -0.285389 1.298571
vertex 14.272427 -1.369906 1.574734
vertex 14.272427 -1.369906 2.321811
endloop
endfacet
facet normal -0.999861 0.016670 0.000000
outer loop
vertex 14.290508 -0.285389 1.298571
vertex 14.272427 -1.369906 2.321811
vertex 14.290508 -0.285389 2.321811
endloop
endfacet
facet normal -0.999861 0.016668 0.000000
outer loop
vertex 14.272427 -1.369906 1.574734
vertex 14.254347 -2.454422 1.160906
vertex 14.254347 -2.454422 2.321811
endloop
endfacet
facet normal -0.999861 0.016667 0.000000
outer loop
vertex 14.272427 -1.369906 1.574734
vertex 14.254347 -2.454422 2.321811
vertex 14.272427 -1.369906 2.321811
endloop
endfacet
endsolid Exported from Blender-2.91.0
