solid 
 facet normal  0.000000e+00  0.000000e+00  1.000000e+00
   outer loop
     vertex  1.425435e+01 -2.454422e+00  2.321811e+00
     vertex  1.429051e+01 -2.853890e-01  2.321811e+00
     vertex  1.427243e+01 -1.369906e+00  2.321811e+00
   endloop
 endfacet
 facet normal  0.000000e+00  0.000000e+00  1.000000e+00
   outer loop
     vertex  1.795511e+01 -2.488520e+00  2.321811e+00
     vertex  1.429051e+01 -2.853890e-01  2.321811e+00
     vertex  1.425435e+01 -2.454422e+00  2.321811e+00
   endloop
 endfacet
 facet normal  0.000000e+00 -0.000000e+00 -1.000000e+00
   outer loop
     vertex  1.432566e+01  2.191092e+00  0.000000e+00
     vertex  1.469652e+01  5.478280e-01  0.000000e+00
     vertex  1.430242e+01  5.542990e-01  0.000000e+00
   endloop
 endfacet
 facet normal  0.000000e+00  0.000000e+00 -1.000000e+00
   outer loop
     vertex  1.432566e+01  2.191092e+00  0.000000e+00
     vertex  1.797920e+01  1.259370e-01  0.000000e+00
     vertex  1.469652e+01  5.478280e-01  0.000000e+00
   endloop
 endfacet
 facet normal  0.000000e+00  0.000000e+00 -1.000000e+00
   outer loop
     vertex  1.432566e+01  2.191092e+00  0.000000e+00
     vertex  1.799792e+01  2.157256e+00  0.000000e+00
     vertex  1.797920e+01  1.259370e-01  0.000000e+00
   endloop
 endfacet
 facet normal  9.213551e-03  9.999576e-01  1.314466e-08
   outer loop
     vertex  1.799792e+01  2.157256e+00  0.000000e+00
     vertex  1.432566e+01  2.191092e+00  0.000000e+00
     vertex  1.461565e+01  2.188420e+00  2.321811e+00
   endloop
 endfacet
 facet normal  9.213542e-03  9.999576e-01 -0.000000e+00
   outer loop
     vertex  1.799792e+01  2.157256e+00  0.000000e+00
     vertex  1.461565e+01  2.188420e+00  2.321811e+00
     vertex  1.799792e+01  2.157256e+00  2.321811e+00
   endloop
 endfacet
 facet normal  0.000000e+00  0.000000e+00  1.000000e+00
   outer loop
     vertex  1.799792e+01  2.157256e+00  2.321811e+00
     vertex  1.461565e+01  2.188420e+00  2.321811e+00
     vertex  1.429051e+01 -2.853890e-01  2.321811e+00
   endloop
 endfacet
 facet normal  0.000000e+00  0.000000e+00  1.000000e+00
   outer loop
     vertex  1.799792e+01  2.157256e+00  2.321811e+00
     vertex  1.429051e+01 -2.853890e-01  2.321811e+00
     vertex  1.797485e+01 -3.467030e-01  2.321811e+00
   endloop
 endfacet
 facet normal  9.999576e-01 -9.213819e-03 -4.325108e-07
   outer loop
     vertex  1.799792e+01  2.157256e+00  0.000000e+00
     vertex  1.797485e+01 -3.467030e-01  2.321811e+00
     vertex  1.797920e+01  1.259370e-01  0.000000e+00
   endloop
 endfacet
 facet normal  9.999576e-01 -9.213418e-03  0.000000e+00
   outer loop
     vertex  1.799792e+01  2.157256e+00  2.321811e+00
     vertex  1.797485e+01 -3.467030e-01  2.321811e+00
     vertex  1.799792e+01  2.157256e+00  0.000000e+00
   endloop
 endfacet
 facet normal  0.000000e+00  0.000000e+00  1.000000e+00
   outer loop
     vertex  1.461565e+01  2.188420e+00  2.321811e+00
     vertex  1.278380e+01  2.205298e+00  2.321811e+00
     vertex  1.429051e+01 -2.853890e-01  2.321811e+00
   endloop
 endfacet
 facet normal  0.000000e+00  0.000000e+00  1.000000e+00
   outer loop
     vertex  1.278380e+01  2.205298e+00  2.321811e+00
     vertex  1.289285e+01 -2.146130e-01  2.321811e+00
     vertex  1.429051e+01 -2.853890e-01  2.321811e+00
   endloop
 endfacet
 facet normal  9.213417e-03  9.999576e-01 -1.861740e-07
   outer loop
     vertex  1.271223e+01  2.205957e+00  0.000000e+00
     vertex -1.795511e+01  2.488520e+00  0.000000e+00
     vertex  1.278380e+01  2.205298e+00  2.321811e+00
   endloop
 endfacet
 facet normal  9.213403e-03  9.999576e-01  0.000000e+00
   outer loop
     vertex  1.278380e+01  2.205298e+00  2.321811e+00
     vertex -1.795511e+01  2.488520e+00  0.000000e+00
     vertex -1.795511e+01  2.488520e+00  2.321811e+00
   endloop
 endfacet
 facet normal  0.000000e+00  0.000000e+00 -1.000000e+00
   outer loop
     vertex  1.287433e+01  5.777510e-01  0.000000e+00
     vertex  1.290359e+01  5.772700e-01  0.000000e+00
     vertex  1.299726e+01 -2.199000e-01  0.000000e+00
   endloop
 endfacet
 facet normal  0.000000e+00  0.000000e+00 -1.000000e+00
   outer loop
     vertex  1.287433e+01  5.777510e-01  0.000000e+00
     vertex  1.299726e+01 -2.199000e-01  0.000000e+00
     vertex  1.289285e+01 -2.146130e-01  0.000000e+00
   endloop
 endfacet
 facet normal -4.458099e-02  1.497837e-01  9.877132e-01
   outer loop
     vertex  1.289285e+01 -2.146130e-01  1.224754e+00
     vertex  1.275034e+01 -8.927760e-01  1.321163e+00
     vertex  1.429051e+01 -2.853890e-01  1.298571e+00
   endloop
 endfacet
 facet normal  9.786251e-01 -2.056524e-01  0.000000e+00
   outer loop
     vertex  1.289285e+01 -2.146130e-01  2.321811e+00
     vertex  1.275034e+01 -8.927760e-01  1.321163e+00
     vertex  1.289285e+01 -2.146130e-01  1.224754e+00
   endloop
 endfacet
 facet normal  9.786251e-01 -2.056524e-01  0.000000e+00
   outer loop
     vertex  1.289285e+01 -2.146130e-01  2.321811e+00
     vertex  1.275034e+01 -8.927760e-01  2.321811e+00
     vertex  1.275034e+01 -8.927760e-01  1.321163e+00
   endloop
 endfacet
 facet normal  9.355288e-01 -3.532505e-01  0.000000e+00
   outer loop
     vertex  1.275034e+01 -8.927760e-01  2.321811e+00
     vertex  1.244114e+01 -1.711636e+00  1.168124e+00
     vertex  1.275034e+01 -8.927760e-01  1.321163e+00
   endloop
 endfacet
 facet normal  9.355288e-01 -3.532505e-01  0.000000e+00
   outer loop
     vertex  1.275034e+01 -8.927760e-01  2.321811e+00
     vertex  1.244114e+01 -1.711636e+00  2.321811e+00
     vertex  1.244114e+01 -1.711636e+00  1.168124e+00
   endloop
 endfacet
 facet normal -5.057425e-02 -9.987203e-01  0.000000e+00
   outer loop
     vertex  1.299726e+01 -2.199000e-01  0.000000e+00
     vertex  1.429051e+01 -2.853890e-01  0.000000e+00
     vertex  1.429051e+01 -2.853890e-01  7.484480e-01
   endloop
 endfacet
 facet normal -5.057423e-02 -9.987203e-01 -2.120703e-08
   outer loop
     vertex  1.299726e+01 -2.199000e-01  0.000000e+00
     vertex  1.429051e+01 -2.853890e-01  7.484480e-01
     vertex  1.289285e+01 -2.146130e-01  9.044670e-01
   endloop
 endfacet
 facet normal  9.786251e-01 -2.056524e-01  0.000000e+00
   outer loop
     vertex  1.289285e+01 -2.146130e-01  9.044670e-01
     vertex  1.275034e+01 -8.927760e-01  0.000000e+00
     vertex  1.289285e+01 -2.146130e-01  0.000000e+00
   endloop
 endfacet
 facet normal  9.786251e-01 -2.056524e-01  0.000000e+00
   outer loop
     vertex  1.289285e+01 -2.146130e-01  9.044670e-01
     vertex  1.275034e+01 -8.927760e-01  9.810130e-01
     vertex  1.275034e+01 -8.927760e-01  0.000000e+00
   endloop
 endfacet
 facet normal  9.355288e-01 -3.532505e-01  0.000000e+00
   outer loop
     vertex  1.275034e+01 -8.927760e-01  9.810130e-01
     vertex  1.244114e+01 -1.711636e+00  0.000000e+00
     vertex  1.275034e+01 -8.927760e-01  0.000000e+00
   endloop
 endfacet
 facet normal  9.355288e-01 -3.532505e-01  0.000000e+00
   outer loop
     vertex  1.275034e+01 -8.927760e-01  9.810130e-01
     vertex  1.244114e+01 -1.711636e+00  1.168124e+00
     vertex  1.244114e+01 -1.711636e+00  0.000000e+00
   endloop
 endfacet
 facet normal  6.302804e-01 -7.763676e-01  0.000000e+00
   outer loop
     vertex  1.244114e+01 -1.711636e+00  1.168124e+00
     vertex  1.244114e+01 -1.711636e+00  2.321811e+00
     vertex  1.155681e+01 -2.429567e+00  2.321811e+00
   endloop
 endfacet
 facet normal  6.302804e-01 -7.763676e-01  0.000000e+00
   outer loop
     vertex  1.244114e+01 -1.711636e+00  0.000000e+00
     vertex  1.244114e+01 -1.711636e+00  1.168124e+00
     vertex  1.155681e+01 -2.429567e+00  2.321811e+00
   endloop
 endfacet
 facet normal  6.302804e-01 -7.763676e-01  0.000000e+00
   outer loop
     vertex  1.155681e+01 -2.429567e+00  0.000000e+00
     vertex  1.244114e+01 -1.711636e+00  0.000000e+00
     vertex  1.155681e+01 -2.429567e+00  2.321811e+00
   endloop
 endfacet
 facet normal -5.057405e-02 -9.987203e-01  0.000000e+00
   outer loop
     vertex  1.289285e+01 -2.146130e-01  0.000000e+00
     vertex  1.299726e+01 -2.199000e-01  0.000000e+00
     vertex  1.289285e+01 -2.146130e-01  9.044670e-01
   endloop
 endfacet
 facet normal -9.212943e-03 -9.999576e-01  0.000000e+00
   outer loop
     vertex  9.643277e+00 -2.411937e+00  0.000000e+00
     vertex  1.155681e+01 -2.429567e+00  0.000000e+00
     vertex  1.155681e+01 -2.429567e+00  2.321811e+00
   endloop
 endfacet
 facet normal -9.212943e-03 -9.999576e-01  0.000000e+00
   outer loop
     vertex  9.643277e+00 -2.411937e+00  0.000000e+00
     vertex  1.155681e+01 -2.429567e+00  2.321811e+00
     vertex  9.643277e+00 -2.411937e+00  2.321811e+00
   endloop
 endfacet
 facet normal -9.655868e-01  2.600810e-01  0.000000e+00
   outer loop
     vertex  9.643277e+00 -2.411937e+00  2.321811e+00
     vertex  9.769449e+00 -1.943506e+00  0.000000e+00
     vertex  9.643277e+00 -2.411937e+00  0.000000e+00
   endloop
 endfacet
 facet normal -9.655868e-01  2.600810e-01  0.000000e+00
   outer loop
     vertex  9.643277e+00 -2.411937e+00  2.321811e+00
     vertex  9.769449e+00 -1.943506e+00  2.321811e+00
     vertex  9.769449e+00 -1.943506e+00  0.000000e+00
   endloop
 endfacet
 facet normal -1.549429e-02 -9.998800e-01  0.000000e+00
   outer loop
     vertex  9.411360e+00 -1.937957e+00  0.000000e+00
     vertex  9.769449e+00 -1.943506e+00  0.000000e+00
     vertex  9.769449e+00 -1.943506e+00  2.321811e+00
   endloop
 endfacet
 facet normal -1.549429e-02 -9.998800e-01  0.000000e+00
   outer loop
     vertex  9.411360e+00 -1.937957e+00  0.000000e+00
     vertex  9.769449e+00 -1.943506e+00  2.321811e+00
     vertex  9.411360e+00 -1.937957e+00  2.321811e+00
   endloop
 endfacet
 facet normal  9.684806e-01 -2.490891e-01  0.000000e+00
   outer loop
     vertex  9.411360e+00 -1.937957e+00  2.321811e+00
     vertex  9.290291e+00 -2.408684e+00  0.000000e+00
     vertex  9.411360e+00 -1.937957e+00  0.000000e+00
   endloop
 endfacet
 facet normal  9.684806e-01 -2.490891e-01  0.000000e+00
   outer loop
     vertex  9.411360e+00 -1.937957e+00  2.321811e+00
     vertex  9.290291e+00 -2.408684e+00  2.321811e+00
     vertex  9.290291e+00 -2.408684e+00  0.000000e+00
   endloop
 endfacet
 facet normal -9.213341e-03 -9.999576e-01  0.000000e+00
   outer loop
     vertex  6.350874e+00 -2.381601e+00  0.000000e+00
     vertex  9.290291e+00 -2.408684e+00  0.000000e+00
     vertex  9.290291e+00 -2.408684e+00  2.321811e+00
   endloop
 endfacet
 facet normal -9.213341e-03 -9.999576e-01  0.000000e+00
   outer loop
     vertex  6.350874e+00 -2.381601e+00  0.000000e+00
     vertex  9.290291e+00 -2.408684e+00  2.321811e+00
     vertex  6.350874e+00 -2.381601e+00  2.321811e+00
   endloop
 endfacet
 facet normal -9.983085e-01  5.813885e-02  0.000000e+00
   outer loop
     vertex  6.350874e+00 -2.381601e+00  2.321811e+00
     vertex  6.374806e+00 -1.970662e+00  0.000000e+00
     vertex  6.350874e+00 -2.381601e+00  0.000000e+00
   endloop
 endfacet
 facet normal -9.983085e-01  5.813885e-02  0.000000e+00
   outer loop
     vertex  6.350874e+00 -2.381601e+00  2.321811e+00
     vertex  6.374806e+00 -1.970662e+00  2.321811e+00
     vertex  6.374806e+00 -1.970662e+00  0.000000e+00
   endloop
 endfacet
 facet normal -2.525490e-02 -9.996810e-01  0.000000e+00
   outer loop
     vertex  5.992903e+00 -1.961014e+00  0.000000e+00
     vertex  6.374806e+00 -1.970662e+00  0.000000e+00
     vertex  6.374806e+00 -1.970662e+00  2.321811e+00
   endloop
 endfacet
 facet normal -2.525490e-02 -9.996810e-01  0.000000e+00
   outer loop
     vertex  5.992903e+00 -1.961014e+00  0.000000e+00
     vertex  6.374806e+00 -1.970662e+00  2.321811e+00
     vertex  5.992903e+00 -1.961014e+00  2.321811e+00
   endloop
 endfacet
 facet normal  9.999839e-01  5.671938e-03  0.000000e+00
   outer loop
     vertex  5.992903e+00 -1.961014e+00  2.321811e+00
     vertex  5.995270e+00 -2.378325e+00  0.000000e+00
     vertex  5.992903e+00 -1.961014e+00  0.000000e+00
   endloop
 endfacet
 facet normal  9.999839e-01  5.671938e-03  0.000000e+00
   outer loop
     vertex  5.992903e+00 -1.961014e+00  2.321811e+00
     vertex  5.995270e+00 -2.378325e+00  2.321811e+00
     vertex  5.995270e+00 -2.378325e+00  0.000000e+00
   endloop
 endfacet
 facet normal -9.213516e-03 -9.999576e-01  0.000000e+00
   outer loop
     vertex  1.781748e+00 -2.339502e+00  0.000000e+00
     vertex  5.995270e+00 -2.378325e+00  0.000000e+00
     vertex  5.995270e+00 -2.378325e+00  2.321811e+00
   endloop
 endfacet
 facet normal -9.213516e-03 -9.999576e-01  0.000000e+00
   outer loop
     vertex  1.781748e+00 -2.339502e+00  0.000000e+00
     vertex  5.995270e+00 -2.378325e+00  2.321811e+00
     vertex  1.781748e+00 -2.339502e+00  2.321811e+00
   endloop
 endfacet
 facet normal -9.762418e-01  2.166838e-01  0.000000e+00
   outer loop
     vertex  1.781748e+00 -2.339502e+00  2.321811e+00
     vertex  2.112672e+00 -8.485650e-01  0.000000e+00
     vertex  1.781748e+00 -2.339502e+00  0.000000e+00
   endloop
 endfacet
 facet normal -9.762418e-01  2.166838e-01  0.000000e+00
   outer loop
     vertex  1.781748e+00 -2.339502e+00  2.321811e+00
     vertex  2.112672e+00 -8.485650e-01  2.321811e+00
     vertex  2.112672e+00 -8.485650e-01  0.000000e+00
   endloop
 endfacet
 facet normal  2.549156e-02 -9.996750e-01  0.000000e+00
   outer loop
     vertex  1.700042e+00 -8.590870e-01  0.000000e+00
     vertex  2.112672e+00 -8.485650e-01  0.000000e+00
     vertex  2.112672e+00 -8.485650e-01  2.321811e+00
   endloop
 endfacet
 facet normal  2.549156e-02 -9.996750e-01  0.000000e+00
   outer loop
     vertex  1.700042e+00 -8.590870e-01  0.000000e+00
     vertex  2.112672e+00 -8.485650e-01  2.321811e+00
     vertex  1.700042e+00 -8.590870e-01  2.321811e+00
   endloop
 endfacet
 facet normal  9.819464e-01 -1.891594e-01  0.000000e+00
   outer loop
     vertex  1.700042e+00 -8.590870e-01  2.321811e+00
     vertex  1.415509e+00 -2.336128e+00  0.000000e+00
     vertex  1.700042e+00 -8.590870e-01  0.000000e+00
   endloop
 endfacet
 facet normal  9.819464e-01 -1.891594e-01  0.000000e+00
   outer loop
     vertex  1.700042e+00 -8.590870e-01  2.321811e+00
     vertex  1.415509e+00 -2.336128e+00  2.321811e+00
     vertex  1.415509e+00 -2.336128e+00  0.000000e+00
   endloop
 endfacet
 facet normal -9.213439e-03 -9.999576e-01  0.000000e+00
   outer loop
     vertex -1.799792e+01 -2.157256e+00  0.000000e+00
     vertex  1.415509e+00 -2.336128e+00  0.000000e+00
     vertex  1.415509e+00 -2.336128e+00  2.321811e+00
   endloop
 endfacet
 facet normal -9.213439e-03 -9.999576e-01  0.000000e+00
   outer loop
     vertex -1.799792e+01 -2.157256e+00  0.000000e+00
     vertex  1.415509e+00 -2.336128e+00  2.321811e+00
     vertex -1.799792e+01 -2.157256e+00  2.321811e+00
   endloop
 endfacet
 facet normal -9.999576e-01  9.213355e-03  0.000000e+00
   outer loop
     vertex -1.799792e+01 -2.157256e+00  2.321811e+00
     vertex -1.795511e+01  2.488520e+00  0.000000e+00
     vertex -1.799792e+01 -2.157256e+00  0.000000e+00
   endloop
 endfacet
 facet normal -9.999576e-01  9.213355e-03  0.000000e+00
   outer loop
     vertex -1.799792e+01 -2.157256e+00  2.321811e+00
     vertex -1.795511e+01  2.488520e+00  2.321811e+00
     vertex -1.795511e+01  2.488520e+00  0.000000e+00
   endloop
 endfacet
 facet normal -5.057423e-02 -9.987203e-01  0.000000e+00
   outer loop
     vertex  1.289285e+01 -2.146130e-01  1.224754e+00
     vertex  1.429051e+01 -2.853890e-01  1.298571e+00
     vertex  1.429051e+01 -2.853890e-01  2.321811e+00
   endloop
 endfacet
 facet normal -5.057423e-02 -9.987203e-01  0.000000e+00
   outer loop
     vertex  1.289285e+01 -2.146130e-01  1.224754e+00
     vertex  1.429051e+01 -2.853890e-01  2.321811e+00
     vertex  1.289285e+01 -2.146130e-01  2.321811e+00
   endloop
 endfacet
 facet normal  0.000000e+00 -0.000000e+00 -1.000000e+00
   outer loop
     vertex -1.795511e+01  2.488520e+00  0.000000e+00
     vertex  1.287433e+01  5.777510e-01  0.000000e+00
     vertex -1.799792e+01 -2.157256e+00  0.000000e+00
   endloop
 endfacet
 facet normal  0.000000e+00  0.000000e+00 -1.000000e+00
   outer loop
     vertex  1.244114e+01 -1.711636e+00  0.000000e+00
     vertex  1.289285e+01 -2.146130e-01  0.000000e+00
     vertex  1.275034e+01 -8.927760e-01  0.000000e+00
   endloop
 endfacet
 facet normal  0.000000e+00  0.000000e+00 -1.000000e+00
   outer loop
     vertex -1.799792e+01 -2.157256e+00  0.000000e+00
     vertex  1.700042e+00 -8.590870e-01  0.000000e+00
     vertex  1.415509e+00 -2.336128e+00  0.000000e+00
   endloop
 endfacet
 facet normal  0.000000e+00 -0.000000e+00 -1.000000e+00
   outer loop
     vertex  2.112672e+00 -8.485650e-01  0.000000e+00
     vertex  5.995270e+00 -2.378325e+00  0.000000e+00
     vertex  1.781748e+00 -2.339502e+00  0.000000e+00
   endloop
 endfacet
 facet normal  0.000000e+00  0.000000e+00 -1.000000e+00
   outer loop
     vertex -1.799792e+01 -2.157256e+00  0.000000e+00
     vertex  1.287433e+01  5.777510e-01  0.000000e+00
     vertex  1.700042e+00 -8.590870e-01  0.000000e+00
   endloop
 endfacet
 facet normal  0.000000e+00  0.000000e+00 -1.000000e+00
   outer loop
     vertex  2.112672e+00 -8.485650e-01  0.000000e+00
     vertex  5.992903e+00 -1.961014e+00  0.000000e+00
     vertex  5.995270e+00 -2.378325e+00  0.000000e+00
   endloop
 endfacet
 facet normal  0.000000e+00  0.000000e+00 -1.000000e+00
   outer loop
     vertex  1.700042e+00 -8.590870e-01  0.000000e+00
     vertex  1.287433e+01  5.777510e-01  0.000000e+00
     vertex  2.112672e+00 -8.485650e-01  0.000000e+00
   endloop
 endfacet
 facet normal  0.000000e+00  0.000000e+00 -1.000000e+00
   outer loop
     vertex  1.244114e+01 -1.711636e+00  0.000000e+00
     vertex  1.287433e+01  5.777510e-01  0.000000e+00
     vertex  1.289285e+01 -2.146130e-01  0.000000e+00
   endloop
 endfacet
 facet normal  0.000000e+00  0.000000e+00 -1.000000e+00
   outer loop
     vertex  9.643277e+00 -2.411937e+00  0.000000e+00
     vertex  1.244114e+01 -1.711636e+00  0.000000e+00
     vertex  1.155681e+01 -2.429567e+00  0.000000e+00
   endloop
 endfacet
 facet normal  0.000000e+00 -0.000000e+00 -1.000000e+00
   outer loop
     vertex  9.769449e+00 -1.943506e+00  0.000000e+00
     vertex  1.244114e+01 -1.711636e+00  0.000000e+00
     vertex  9.643277e+00 -2.411937e+00  0.000000e+00
   endloop
 endfacet
 facet normal  0.000000e+00  0.000000e+00 -1.000000e+00
   outer loop
     vertex  2.112672e+00 -8.485650e-01  0.000000e+00
     vertex  1.287433e+01  5.777510e-01  0.000000e+00
     vertex  1.244114e+01 -1.711636e+00  0.000000e+00
   endloop
 endfacet
 facet normal  0.000000e+00  0.000000e+00 -1.000000e+00
   outer loop
     vertex  2.112672e+00 -8.485650e-01  0.000000e+00
     vertex  6.374806e+00 -1.970662e+00  0.000000e+00
     vertex  5.992903e+00 -1.961014e+00  0.000000e+00
   endloop
 endfacet
 facet normal  0.000000e+00 -0.000000e+00 -1.000000e+00
   outer loop
     vertex  6.374806e+00 -1.970662e+00  0.000000e+00
     vertex  9.290291e+00 -2.408684e+00  0.000000e+00
     vertex  6.350874e+00 -2.381601e+00  0.000000e+00
   endloop
 endfacet
 facet normal  0.000000e+00  0.000000e+00 -1.000000e+00
   outer loop
     vertex  9.411360e+00 -1.937957e+00  0.000000e+00
     vertex  1.244114e+01 -1.711636e+00  0.000000e+00
     vertex  9.769449e+00 -1.943506e+00  0.000000e+00
   endloop
 endfacet
 facet normal  0.000000e+00  0.000000e+00 -1.000000e+00
   outer loop
     vertex  6.374806e+00 -1.970662e+00  0.000000e+00
     vertex  9.411360e+00 -1.937957e+00  0.000000e+00
     vertex  9.290291e+00 -2.408684e+00  0.000000e+00
   endloop
 endfacet
 facet normal  0.000000e+00  0.000000e+00 -1.000000e+00
   outer loop
     vertex  2.112672e+00 -8.485650e-01  0.000000e+00
     vertex  1.244114e+01 -1.711636e+00  0.000000e+00
     vertex  6.374806e+00 -1.970662e+00  0.000000e+00
   endloop
 endfacet
 facet normal  0.000000e+00  0.000000e+00 -1.000000e+00
   outer loop
     vertex  6.374806e+00 -1.970662e+00  0.000000e+00
     vertex  1.244114e+01 -1.711636e+00  0.000000e+00
     vertex  9.411360e+00 -1.937957e+00  0.000000e+00
   endloop
 endfacet
 facet normal -8.333125e-02  2.472129e-01  9.653713e-01
   outer loop
     vertex  1.275034e+01 -8.927760e-01  1.321163e+00
     vertex  1.427243e+01 -1.369906e+00  1.574734e+00
     vertex  1.429051e+01 -2.853890e-01  1.298571e+00
   endloop
 endfacet
 facet normal -1.148915e-01 -8.754509e-02 -9.895129e-01
   outer loop
     vertex  1.289285e+01 -2.146130e-01  9.044670e-01
     vertex  1.429051e+01 -2.853890e-01  7.484480e-01
     vertex  1.275034e+01 -8.927760e-01  9.810130e-01
   endloop
 endfacet
 facet normal -9.975564e-02 -1.250122e-01 -9.871275e-01
   outer loop
     vertex  1.275034e+01 -8.927760e-01  9.810130e-01
     vertex  1.429051e+01 -2.853890e-01  7.484480e-01
     vertex  1.427243e+01 -1.369906e+00  8.876210e-01
   endloop
 endfacet
 facet normal -1.161648e-01 -1.793605e-01 -9.769010e-01
   outer loop
     vertex  1.244114e+01 -1.711636e+00  1.168124e+00
     vertex  1.275034e+01 -8.927760e-01  9.810130e-01
     vertex  1.427243e+01 -1.369906e+00  8.876210e-01
   endloop
 endfacet
 facet normal -1.027502e-01 -2.414452e-01 -9.649594e-01
   outer loop
     vertex  1.244114e+01 -1.711636e+00  1.168124e+00
     vertex  1.427243e+01 -1.369906e+00  8.876210e-01
     vertex  1.425435e+01 -2.454422e+00  1.160906e+00
   endloop
 endfacet
 facet normal -1.400829e-01 -3.509515e-01  9.258563e-01
   outer loop
     vertex  1.244114e+01 -1.711636e+00  1.168124e+00
     vertex  1.425435e+01 -2.454422e+00  1.160906e+00
     vertex  1.427243e+01 -1.369906e+00  1.574734e+00
   endloop
 endfacet
 facet normal -1.962303e-01 -1.080477e-01  9.745868e-01
   outer loop
     vertex  1.427243e+01 -1.369906e+00  1.574734e+00
     vertex  1.275034e+01 -8.927760e-01  1.321163e+00
     vertex  1.244114e+01 -1.711636e+00  1.168124e+00
   endloop
 endfacet
 facet normal  0.000000e+00  0.000000e+00  1.000000e+00
   outer loop
     vertex  1.278380e+01  2.205298e+00  2.321811e+00
     vertex  1.275034e+01 -8.927760e-01  2.321811e+00
     vertex  1.289285e+01 -2.146130e-01  2.321811e+00
   endloop
 endfacet
 facet normal  0.000000e+00  0.000000e+00  1.000000e+00
   outer loop
     vertex  1.278380e+01  2.205298e+00  2.321811e+00
     vertex -1.795511e+01  2.488520e+00  2.321811e+00
     vertex -1.799792e+01 -2.157256e+00  2.321811e+00
   endloop
 endfacet
 facet normal -0.000000e+00  0.000000e+00  1.000000e+00
   outer loop
     vertex -1.799792e+01 -2.157256e+00  2.321811e+00
     vertex  1.415509e+00 -2.336128e+00  2.321811e+00
     vertex  1.700042e+00 -8.590870e-01  2.321811e+00
   endloop
 endfacet
 facet normal  0.000000e+00  0.000000e+00  1.000000e+00
   outer loop
     vertex  5.995270e+00 -2.378325e+00  2.321811e+00
     vertex  2.112672e+00 -8.485650e-01  2.321811e+00
     vertex  1.781748e+00 -2.339502e+00  2.321811e+00
   endloop
 endfacet
 facet normal  0.000000e+00  0.000000e+00  1.000000e+00
   outer loop
     vertex  1.278380e+01  2.205298e+00  2.321811e+00
     vertex -1.799792e+01 -2.157256e+00  2.321811e+00
     vertex  1.700042e+00 -8.590870e-01  2.321811e+00
   endloop
 endfacet
 facet normal  0.000000e+00  0.000000e+00  1.000000e+00
   outer loop
     vertex  2.112672e+00 -8.485650e-01  2.321811e+00
     vertex  5.995270e+00 -2.378325e+00  2.321811e+00
     vertex  5.992903e+00 -1.961014e+00  2.321811e+00
   endloop
 endfacet
 facet normal  0.000000e+00  0.000000e+00  1.000000e+00
   outer loop
     vertex  1.278380e+01  2.205298e+00  2.321811e+00
     vertex  1.700042e+00 -8.590870e-01  2.321811e+00
     vertex  2.112672e+00 -8.485650e-01  2.321811e+00
   endloop
 endfacet
 facet normal  0.000000e+00  0.000000e+00  1.000000e+00
   outer loop
     vertex  1.278380e+01  2.205298e+00  2.321811e+00
     vertex  1.244114e+01 -1.711636e+00  2.321811e+00
     vertex  1.275034e+01 -8.927760e-01  2.321811e+00
   endloop
 endfacet
 facet normal -0.000000e+00  0.000000e+00  1.000000e+00
   outer loop
     vertex  9.643277e+00 -2.411937e+00  2.321811e+00
     vertex  1.155681e+01 -2.429567e+00  2.321811e+00
     vertex  1.244114e+01 -1.711636e+00  2.321811e+00
   endloop
 endfacet
 facet normal  0.000000e+00  0.000000e+00  1.000000e+00
   outer loop
     vertex  1.244114e+01 -1.711636e+00  2.321811e+00
     vertex  9.769449e+00 -1.943506e+00  2.321811e+00
     vertex  9.643277e+00 -2.411937e+00  2.321811e+00
   endloop
 endfacet
 facet normal  0.000000e+00  0.000000e+00  1.000000e+00
   outer loop
     vertex  1.278380e+01  2.205298e+00  2.321811e+00
     vertex  2.112672e+00 -8.485650e-01  2.321811e+00
     vertex  1.244114e+01 -1.711636e+00  2.321811e+00
   endloop
 endfacet
 facet normal  0.000000e+00  0.000000e+00  1.000000e+00
   outer loop
     vertex  6.374806e+00 -1.970662e+00  2.321811e+00
     vertex  2.112672e+00 -8.485650e-01  2.321811e+00
     vertex  5.992903e+00 -1.961014e+00  2.321811e+00
   endloop
 endfacet
 facet normal  0.000000e+00  0.000000e+00  1.000000e+00
   outer loop
     vertex  9.290291e+00 -2.408684e+00  2.321811e+00
     vertex  6.374806e+00 -1.970662e+00  2.321811e+00
     vertex  6.350874e+00 -2.381601e+00  2.321811e+00
   endloop
 endfacet
 facet normal  0.000000e+00  0.000000e+00  1.000000e+00
   outer loop
     vertex  1.244114e+01 -1.711636e+00  2.321811e+00
     vertex  9.411360e+00 -1.937957e+00  2.321811e+00
     vertex  9.769449e+00 -1.943506e+00  2.321811e+00
   endloop
 endfacet
 facet normal -0.000000e+00  0.000000e+00  1.000000e+00
   outer loop
     vertex  6.374806e+00 -1.970662e+00  2.321811e+00
     vertex  9.290291e+00 -2.408684e+00  2.321811e+00
     vertex  9.411360e+00 -1.937957e+00  2.321811e+00
   endloop
 endfacet
 facet normal  0.000000e+00  0.000000e+00  1.000000e+00
   outer loop
     vertex  1.244114e+01 -1.711636e+00  2.321811e+00
     vertex  2.112672e+00 -8.485650e-01  2.321811e+00
     vertex  6.374806e+00 -1.970662e+00  2.321811e+00
   endloop
 endfacet
 facet normal  0.000000e+00  0.000000e+00  1.000000e+00
   outer loop
     vertex  1.244114e+01 -1.711636e+00  2.321811e+00
     vertex  6.374806e+00 -1.970662e+00  2.321811e+00
     vertex  9.411360e+00 -1.937957e+00  2.321811e+00
   endloop
 endfacet
 facet normal  9.212911e-03  9.999576e-01  9.303637e-08
   outer loop
     vertex  1.432566e+01  2.191092e+00  0.000000e+00
     vertex  1.271223e+01  2.205957e+00  0.000000e+00
     vertex  1.461565e+01  2.188420e+00  2.321811e+00
   endloop
 endfacet
 facet normal  9.213245e-03  9.999576e-01 -1.808698e-07
   outer loop
     vertex  1.271223e+01  2.205957e+00  0.000000e+00
     vertex  1.278380e+01  2.205298e+00  2.321811e+00
     vertex  1.461565e+01  2.188420e+00  2.321811e+00
   endloop
 endfacet
 facet normal  0.000000e+00  0.000000e+00 -1.000000e+00
   outer loop
     vertex  1.797920e+01  1.259370e-01  0.000000e+00
     vertex  1.430242e+01  5.542990e-01  0.000000e+00
     vertex  1.469652e+01  5.478280e-01  0.000000e+00
   endloop
 endfacet
 facet normal  0.000000e+00  0.000000e+00 -1.000000e+00
   outer loop
     vertex  1.430242e+01  5.542990e-01  0.000000e+00
     vertex  1.797920e+01  1.259370e-01  0.000000e+00
     vertex  1.797892e+01  9.547800e-02  0.000000e+00
   endloop
 endfacet
 facet normal  0.000000e+00 -0.000000e+00 -1.000000e+00
   outer loop
     vertex  1.430242e+01  5.542990e-01  0.000000e+00
     vertex  1.797892e+01  9.547800e-02  0.000000e+00
     vertex  1.429051e+01 -2.853890e-01  0.000000e+00
   endloop
 endfacet
 facet normal  0.000000e+00  0.000000e+00 -1.000000e+00
   outer loop
     vertex  1.432566e+01  2.191092e+00  0.000000e+00
     vertex  1.430242e+01  5.542990e-01  0.000000e+00
     vertex  1.290359e+01  5.772700e-01  0.000000e+00
   endloop
 endfacet
 facet normal  0.000000e+00  0.000000e+00 -1.000000e+00
   outer loop
     vertex  1.271223e+01  2.205957e+00  0.000000e+00
     vertex  1.432566e+01  2.191092e+00  0.000000e+00
     vertex  1.290359e+01  5.772700e-01  0.000000e+00
   endloop
 endfacet
 facet normal  0.000000e+00  0.000000e+00 -1.000000e+00
   outer loop
     vertex  1.271223e+01  2.205957e+00  0.000000e+00
     vertex  1.290359e+01  5.772700e-01  0.000000e+00
     vertex  1.287433e+01  5.777510e-01  0.000000e+00
   endloop
 endfacet
 facet normal  0.000000e+00  0.000000e+00 -1.000000e+00
   outer loop
     vertex -1.795511e+01  2.488520e+00  0.000000e+00
     vertex  1.271223e+01  2.205957e+00  0.000000e+00
     vertex  1.287433e+01  5.777510e-01  0.000000e+00
   endloop
 endfacet
 facet normal  0.000000e+00  0.000000e+00 -1.000000e+00
   outer loop
     vertex  1.290359e+01  5.772700e-01  0.000000e+00
     vertex  1.430242e+01  5.542990e-01  0.000000e+00
     vertex  1.299726e+01 -2.199000e-01  0.000000e+00
   endloop
 endfacet
 facet normal  0.000000e+00  0.000000e+00 -1.000000e+00
   outer loop
     vertex  1.299726e+01 -2.199000e-01  0.000000e+00
     vertex  1.430242e+01  5.542990e-01  0.000000e+00
     vertex  1.429051e+01 -2.853890e-01  0.000000e+00
   endloop
 endfacet
 facet normal  9.999577e-01 -9.192297e-03  3.949011e-06
   outer loop
     vertex  1.797485e+01 -3.467030e-01  2.321811e+00
     vertex  1.797892e+01  9.547800e-02  0.000000e+00
     vertex  1.797920e+01  1.259370e-01  0.000000e+00
   endloop
 endfacet
 facet normal  9.999576e-01 -9.213281e-03 -4.773597e-08
   outer loop
     vertex  1.797485e+01 -3.467030e-01  2.321811e+00
     vertex  1.795511e+01 -2.488520e+00  2.321811e+00
     vertex  1.797892e+01  9.547800e-02  0.000000e+00
   endloop
 endfacet
 facet normal -9.213380e-03 -9.999576e-01  0.000000e+00
   outer loop
     vertex  1.425435e+01 -2.454422e+00  2.321811e+00
     vertex  1.795511e+01 -2.488520e+00  0.000000e+00
     vertex  1.795511e+01 -2.488520e+00  2.321811e+00
   endloop
 endfacet
 facet normal -9.213380e-03 -9.999576e-01  0.000000e+00
   outer loop
     vertex  1.425435e+01 -2.454422e+00  1.160906e+00
     vertex  1.795511e+01 -2.488520e+00  0.000000e+00
     vertex  1.425435e+01 -2.454422e+00  2.321811e+00
   endloop
 endfacet
 facet normal -9.213380e-03 -9.999576e-01  0.000000e+00
   outer loop
     vertex  1.425435e+01 -2.454422e+00  0.000000e+00
     vertex  1.795511e+01 -2.488520e+00  0.000000e+00
     vertex  1.425435e+01 -2.454422e+00  1.160906e+00
   endloop
 endfacet
 facet normal  9.999576e-01 -9.213238e-03  0.000000e+00
   outer loop
     vertex  1.797892e+01  9.547800e-02  0.000000e+00
     vertex  1.795511e+01 -2.488520e+00  2.321811e+00
     vertex  1.795511e+01 -2.488520e+00  0.000000e+00
   endloop
 endfacet
 facet normal -9.998611e-01  1.666871e-02  0.000000e+00
   outer loop
     vertex  1.425435e+01 -2.454422e+00  1.160906e+00
     vertex  1.427243e+01 -1.369906e+00  0.000000e+00
     vertex  1.425435e+01 -2.454422e+00  0.000000e+00
   endloop
 endfacet
 facet normal -9.998611e-01  1.666871e-02  0.000000e+00
   outer loop
     vertex  1.425435e+01 -2.454422e+00  1.160906e+00
     vertex  1.427243e+01 -1.369906e+00  8.876210e-01
     vertex  1.427243e+01 -1.369906e+00  0.000000e+00
   endloop
 endfacet
 facet normal  0.000000e+00  0.000000e+00  1.000000e+00
   outer loop
     vertex  1.797485e+01 -3.467030e-01  2.321811e+00
     vertex  1.429051e+01 -2.853890e-01  2.321811e+00
     vertex  1.795511e+01 -2.488520e+00  2.321811e+00
   endloop
 endfacet
 facet normal  0.000000e+00 -0.000000e+00 -1.000000e+00
   outer loop
     vertex  1.429051e+01 -2.853890e-01  0.000000e+00
     vertex  1.797892e+01  9.547800e-02  0.000000e+00
     vertex  1.427243e+01 -1.369906e+00  0.000000e+00
   endloop
 endfacet
 facet normal  0.000000e+00  0.000000e+00 -1.000000e+00
   outer loop
     vertex  1.425435e+01 -2.454422e+00  0.000000e+00
     vertex  1.797892e+01  9.547800e-02  0.000000e+00
     vertex  1.795511e+01 -2.488520e+00  0.000000e+00
   endloop
 endfacet
 facet normal  0.000000e+00 -0.000000e+00 -1.000000e+00
   outer loop
     vertex  1.427243e+01 -1.369906e+00  0.000000e+00
     vertex  1.797892e+01  9.547800e-02  0.000000e+00
     vertex  1.425435e+01 -2.454422e+00  0.000000e+00
   endloop
 endfacet
 facet normal -9.998611e-01  1.666962e-02  0.000000e+00
   outer loop
     vertex  1.427243e+01 -1.369906e+00  8.876210e-01
     vertex  1.429051e+01 -2.853890e-01  0.000000e+00
     vertex  1.427243e+01 -1.369906e+00  0.000000e+00
   endloop
 endfacet
 facet normal -9.998611e-01  1.666962e-02  0.000000e+00
   outer loop
     vertex  1.427243e+01 -1.369906e+00  8.876210e-01
     vertex  1.429051e+01 -2.853890e-01  7.484480e-01
     vertex  1.429051e+01 -2.853890e-01  0.000000e+00
   endloop
 endfacet
 facet normal -9.998611e-01  1.666962e-02  0.000000e+00
   outer loop
     vertex  1.427243e+01 -1.369906e+00  2.321811e+00
     vertex  1.429051e+01 -2.853890e-01  1.298571e+00
     vertex  1.427243e+01 -1.369906e+00  1.574734e+00
   endloop
 endfacet
 facet normal -9.998611e-01  1.666962e-02  0.000000e+00
   outer loop
     vertex  1.427243e+01 -1.369906e+00  2.321811e+00
     vertex  1.429051e+01 -2.853890e-01  2.321811e+00
     vertex  1.429051e+01 -2.853890e-01  1.298571e+00
   endloop
 endfacet
 facet normal -9.998611e-01  1.666871e-02  0.000000e+00
   outer loop
     vertex  1.425435e+01 -2.454422e+00  2.321811e+00
     vertex  1.427243e+01 -1.369906e+00  1.574734e+00
     vertex  1.425435e+01 -2.454422e+00  1.160906e+00
   endloop
 endfacet
 facet normal -9.998611e-01  1.666871e-02  0.000000e+00
   outer loop
     vertex  1.425435e+01 -2.454422e+00  2.321811e+00
     vertex  1.427243e+01 -1.369906e+00  2.321811e+00
     vertex  1.427243e+01 -1.369906e+00  1.574734e+00
   endloop
 endfacet
endsolid
